<svg width="30" height="18" viewBox="0 0 30 18" fill="none" xmlns="http://www.w3.org/2000/svg">
<path d="M8.205 16.834L0.635 9.27397C0.545 9.18397 0.475001 9.07397 0.425001 8.94397C0.375001 8.82397 0.345003 8.69397 0.345003 8.56397C0.345003 8.43397 0.375001 8.30397 0.425001 8.18397C0.475001 8.06397 0.545 7.95397 0.635 7.85397L8.205 0.293973C8.39198 0.106995 8.64558 0.00195221 8.91 0.00195222C9.17443 0.00195223 9.42802 0.106995 9.615 0.293973C9.80198 0.48095 9.90702 0.734547 9.90702 0.998973C9.90702 1.2634 9.80198 1.517 9.615 1.70397L3.755 7.56397L28.655 7.56397C29.205 7.56397 29.655 8.01397 29.655 8.56397C29.655 9.11397 29.205 9.56397 28.655 9.56397L3.755 9.56397L9.615 15.424C9.80198 15.6109 9.90702 15.8645 9.90702 16.129C9.90702 16.3934 9.80198 16.647 9.615 16.834C9.42802 17.0209 9.17443 17.126 8.91 17.126C8.64557 17.126 8.39198 17.0209 8.205 16.834V16.834Z" fill="#68BE60"/>
</svg>
