<svg width="30" height="18" viewBox="0 0 30 18" fill="none" xmlns="http://www.w3.org/2000/svg">
<path d="M21.793 17.706L29.36 10.14C29.4533 10.0473 29.5274 9.9371 29.578 9.81568C29.6285 9.69425 29.6545 9.56402 29.6545 9.4325C29.6545 9.30097 29.6285 9.17074 29.578 9.04932C29.5274 8.92789 29.4533 8.81767 29.36 8.72499L21.794 1.16C21.7018 1.06449 21.5914 0.988302 21.4694 0.935893C21.3474 0.883484 21.2162 0.855897 21.0834 0.854743C20.9506 0.853589 20.8189 0.878895 20.696 0.929176C20.5731 0.979456 20.4615 1.05371 20.3676 1.1476C20.2737 1.24149 20.1995 1.35315 20.1492 1.47604C20.0989 1.59894 20.0736 1.73062 20.0747 1.86339C20.0759 1.99617 20.1035 2.1274 20.1559 2.2494C20.2083 2.3714 20.2845 2.48175 20.38 2.574L26.24 8.43199L1.346 8.43199C1.08078 8.43199 0.826429 8.53735 0.638893 8.72489C0.451356 8.91242 0.346 9.16678 0.346 9.43199C0.346 9.69721 0.451356 9.95157 0.638893 10.1391C0.826429 10.3266 1.08078 10.432 1.346 10.432L26.238 10.432L20.379 16.291C20.2858 16.3836 20.2119 16.4938 20.1614 16.6151C20.1109 16.7365 20.085 16.8666 20.085 16.998C20.085 17.1294 20.1109 17.2595 20.1614 17.3808C20.2119 17.5022 20.2858 17.6123 20.379 17.705C20.5665 17.8925 20.8208 17.9978 21.086 17.9978C21.3512 17.9978 21.6055 17.8925 21.793 17.705L21.793 17.706Z" fill="#68BE60"/>
</svg>
