<svg width="34" height="34" viewBox="0 0 34 34" fill="none" xmlns="http://www.w3.org/2000/svg">
<path fill-rule="evenodd" clip-rule="evenodd" d="M16.7663 13.1429C19.1115 13.1429 21.0217 15.0667 21.0217 17.4286C21.0217 19.7904 19.1115 21.7143 16.7663 21.7143C14.4211 21.7143 12.5109 19.7904 12.5109 17.4286C12.5109 15.0667 14.4211 13.1429 16.7663 13.1429ZM13.362 17.4286C13.362 15.5299 14.8811 14 16.7663 14C18.6515 14 20.1707 15.5299 20.1707 17.4286C20.1707 19.3271 18.6515 20.8571 16.7663 20.8571C14.8811 20.8571 13.362 19.3271 13.362 17.4286Z" fill="#68BE60"/>
<path d="M20.0161 11.4235C20.0706 11.4325 20.1236 11.4526 20.1707 11.4821C21.7344 12.3914 22.8683 13.8775 23.3356 15.6339C23.3997 15.8517 23.2597 16.1079 23.0431 16.1713C22.8265 16.2346 22.5729 16.0934 22.5112 15.875C22.1022 14.3378 21.1136 13.0279 19.7451 12.2321C19.4305 12.0737 19.5067 11.4989 19.8515 11.4286C19.9054 11.4161 19.9615 11.4145 20.0161 11.4235Z" fill="#68BE60"/>
<path fill-rule="evenodd" clip-rule="evenodd" d="M34 17C34 26.3888 26.3888 34 17 34C7.61116 34 0 26.3888 0 17C0 7.61116 7.61116 0 17 0C26.3888 0 34 7.61116 34 17ZM4 8V13.5714C4.00434 13.6819 4.05313 13.7901 4.13298 13.8661L4.85109 14.5893V25.5714C4.85111 25.7957 5.05382 25.9999 5.27663 26H6.97881C7.20161 25.9999 7.40433 25.7957 7.40435 25.5714V14.5893L8.12245 13.8661C8.2023 13.7898 8.2511 13.6819 8.25544 13.5714V8H7.40435V13.3839L6.68624 14.1071C6.60003 14.1894 6.55047 14.309 6.55326 14.4286V25.1429H5.70217V14.4286C5.70498 14.309 5.65541 14.1893 5.56919 14.1071L4.85109 13.3839V8H4ZM5.70217 13.1429V8H6.55326V13.1429H5.70217ZM16.7663 14C14.8811 14 13.362 15.5299 13.362 17.4286C13.362 19.3271 14.8811 20.8571 16.7663 20.8571C18.6515 20.8571 20.1707 19.3271 20.1707 17.4286C20.1707 15.5299 18.6515 14 16.7663 14ZM9.53207 17.4286C9.53207 13.3997 12.7659 10.1429 16.7663 10.1429C20.7667 10.1429 24.0006 13.3997 24.0006 17.4286C24.0006 21.4574 20.7667 24.7143 16.7663 24.7143C12.7659 24.7143 9.53207 21.4574 9.53207 17.4286ZM20.0161 11.4235C20.0706 11.4325 20.1236 11.4526 20.1707 11.4821C21.7344 12.3914 22.8683 13.8775 23.3356 15.6339C23.3997 15.8517 23.2597 16.1079 23.0431 16.1713C22.8265 16.2346 22.5729 16.0934 22.5112 15.875C22.1022 14.3378 21.1136 13.0279 19.7451 12.2321C19.4305 12.0737 19.5067 11.4989 19.8515 11.4286C19.9054 11.4161 19.9615 11.4145 20.0161 11.4235ZM16.7663 13.1429C19.1115 13.1429 21.0217 15.0667 21.0217 17.4286C21.0217 19.7904 19.1115 21.7143 16.7663 21.7143C14.4211 21.7143 12.5109 19.7904 12.5109 17.4286C12.5109 15.0667 14.4211 13.1429 16.7663 13.1429ZM28 8.9375C27.0013 9.24333 26.2978 10.0902 26.2978 11.1071V20H28V8.9375ZM27.1489 26V20.8571H28V21.2857C27.9975 21.3123 27.9975 21.3395 28 21.3661V26H27.1489Z" fill="#68BE60"/>
</svg>
