<?xml version="1.0" encoding="utf-8"?>
<!-- Generator: Adobe Illustrator 17.1.0, SVG Export Plug-In . SVG Version: 6.00 Build 0)  -->
<!DOCTYPE svg PUBLIC "-//W3C//DTD SVG 1.1//EN" "http://www.w3.org/Graphics/SVG/1.1/DTD/svg11.dtd">
<svg version="1.1" id="Layer_1" xmlns="http://www.w3.org/2000/svg" xmlns:xlink="http://www.w3.org/1999/xlink" x="0px" y="0px"
	 viewBox="0 0 512 136" enable-background="new 0 0 512 136" xml:space="preserve">
<g>
	<path fill="#FFFFFF" d="M37.4,48.5v25.8H29V48.5L7.6,14.6h9.1l16.6,27l16.5-27h9.1L37.4,48.5z"/>
	<path fill="#FFFFFF" d="M67.6,74.3V14.6h40.7v6.9H76.1v18.7h29.6V47H76.1v20.4h34v6.9H67.6z"/>
	<path fill="#FFFFFF" d="M164.7,57.9c0,5.4-2,9.7-6,12.7c-4,3-9.6,4.6-17,4.6c-13.5,0-21.3-5.3-23.5-15.8l8.2-1.6
		c0.8,3.8,2.5,6.6,5.1,8.3c2.6,1.7,6.1,2.6,10.4,2.6c4.7,0,8.3-0.9,10.7-2.7c2.4-1.8,3.7-4.4,3.7-7.8c0-2.1-0.5-3.7-1.4-5
		c-1-1.3-2.2-2.4-3.8-3.2c-1.6-0.8-3.3-1.5-5.3-2c-2-0.5-3.9-1-6-1.5c-4.8-1.2-8.1-2.3-10.2-3.3c-2-1-3.6-2.1-4.8-3.3
		c-1.2-1.3-2.1-2.7-2.7-4.3c-0.6-1.6-0.9-3.5-0.9-5.7c0-5.1,1.8-9,5.4-11.8c3.6-2.8,8.7-4.1,15.4-4.1c6.3,0,11,1.1,14.3,3.3
		c3.3,2.2,5.6,5.9,6.9,11.1l-8.3,1.5c-0.7-3.3-2.1-5.7-4.2-7.2c-2.1-1.5-5-2.2-8.7-2.2c-8.4,0-12.5,3.1-12.5,9.4
		c0,1.8,0.4,3.2,1.2,4.3c0.8,1.1,1.8,2,3.2,2.7c1.3,0.7,2.9,1.3,4.7,1.8c1.8,0.5,3.7,1,5.7,1.5c4.1,1,7.1,1.9,8.9,2.6
		c1.8,0.7,3.4,1.5,4.8,2.4s2.6,1.9,3.6,3.1c1,1.2,1.8,2.6,2.4,4.2C164.5,53.8,164.7,55.7,164.7,57.9z"/>
	<path fill="#FFFFFF" d="M207.9,74.3V46.7h-23.1v27.6h-8.5V14.6h8.5v25.1h23.1V14.6h8.5v59.7H207.9z"/>
	<path fill="#FFFFFF" d="M240.6,21.5v21.9h29.9v7h-29.9v23.9h-8.5V14.6h39.4v6.9H240.6z"/>
	<path fill="#68BE60" d="M327.8,44.2c0,9.9-2,17.6-5.9,23c-3.9,5.4-9.5,8.1-16.8,8.1c-7.3,0-13-2.6-16.8-7.9
		c-3.9-5.3-5.8-13-5.8-23.1c0-9.9,1.9-17.5,5.8-22.7c3.8-5.2,9.5-7.8,17-7.8c7.3,0,12.9,2.6,16.8,7.7
		C325.9,26.5,327.8,34.1,327.8,44.2z M318.9,44.2c0-15.7-4.6-23.6-13.7-23.6c-9.2,0-13.8,7.9-13.8,23.6c0,8,1.2,14,3.5,18.1
		c2.3,4.1,5.8,6.1,10.3,6.1c4.8,0,8.3-2.1,10.5-6.2S318.9,52,318.9,44.2z"/>
	<path fill="#68BE60" d="M382.2,44.2c0,9.9-2,17.6-5.9,23c-3.9,5.4-9.5,8.1-16.8,8.1c-7.3,0-13-2.6-16.8-7.9
		c-3.9-5.3-5.8-13-5.8-23.1c0-9.9,1.9-17.5,5.8-22.7c3.8-5.2,9.5-7.8,17-7.8c7.3,0,12.9,2.6,16.8,7.7
		C380.3,26.5,382.2,34.1,382.2,44.2z M373.3,44.2c0-15.7-4.6-23.6-13.7-23.6c-9.2,0-13.8,7.9-13.8,23.6c0,8,1.2,14,3.5,18.1
		c2.3,4.1,5.8,6.1,10.3,6.1c4.8,0,8.3-2.1,10.5-6.2S373.3,52,373.3,44.2z"/>
	<path fill="#FFFFFF" d="M436.6,43.9c0,9.8-2.3,17.3-6.8,22.5s-11,7.9-19.5,7.9H394V14.6h13.8c9.7,0,16.9,2.4,21.7,7.3
		C434.2,26.7,436.6,34.1,436.6,43.9z M428.1,43.9c0-7.8-1.6-13.5-4.9-17c-3.2-3.6-8.4-5.3-15.4-5.3h-5.4v45.9h7.2
		c6.3,0,10.9-2,13.9-5.9C426.6,57.6,428.1,51.7,428.1,43.9z"/>
	<path fill="#FFFFFF" d="M486.9,74.3l-6.1-16.9h-24.9l-6.1,16.9h-8.7l22.6-59.7h9.6l22.2,59.7H486.9z M468.4,21l-0.5,1.7l-3.1,9.4
		l-6.7,18.7h20.5L471,28.7L468.4,21z"/>
</g>
<g>
	<path fill="#FFFFFF" d="M7.5,101c0-3,0.7-5.3,2.2-6.9c1.4-1.6,3.5-2.4,6.2-2.4c2,0,3.7,0.5,5,1.5c1.3,1,2.1,2.3,2.4,3.9l-3.2,0.2
		c-0.2-1-0.6-1.8-1.3-2.4c-0.7-0.6-1.7-0.9-3-0.9c-1.8,0-3.1,0.5-3.9,1.6c-0.8,1.1-1.2,2.9-1.2,5.3c0,2.5,0.4,4.3,1.2,5.4
		c0.8,1.1,2.1,1.7,3.9,1.7c1.2,0,2.2-0.3,3-0.9c0.8-0.6,1.3-1.5,1.5-2.7l3.2,0.2c-0.1,1.1-0.5,2-1.2,2.9s-1.5,1.6-2.6,2.1
		c-1.1,0.5-2.3,0.7-3.7,0.7c-2.7,0-4.8-0.8-6.2-2.4C8.2,106.3,7.5,104,7.5,101z"/>
	<path fill="#FFFFFF" d="M50,108.2c0.3,0,0.6,0,1-0.1v1.9c-0.8,0.2-1.5,0.3-2.3,0.3c-1.1,0-1.9-0.3-2.4-0.9
		c-0.5-0.6-0.8-1.5-0.9-2.7h-0.1c-0.7,1.3-1.6,2.3-2.6,2.9s-2.2,0.9-3.7,0.9c-1.8,0-3.1-0.5-4-1.4c-0.9-1-1.3-2.3-1.3-3.9
		c0-3.9,2.5-5.9,7.6-5.9l3.9-0.1v-1c0-1.5-0.3-2.5-0.9-3.2s-1.5-1-2.8-1c-1.3,0-2.3,0.2-2.8,0.7c-0.6,0.5-0.9,1.2-1,2.2l-3.1-0.3
		c0.5-3.3,2.9-4.9,7.1-4.9c2.2,0,3.9,0.5,5,1.6s1.7,2.5,1.7,4.5v7.8c0,0.9,0.1,1.6,0.4,2C48.9,107.9,49.4,108.2,50,108.2z
		 M39.8,108.1c1.1,0,2-0.3,2.8-0.8c0.8-0.5,1.5-1.2,1.9-2.1c0.5-0.9,0.7-1.7,0.7-2.7v-1.5l-3.2,0.1c-1.3,0-2.3,0.2-3,0.4
		c-0.7,0.3-1.2,0.7-1.6,1.2s-0.6,1.3-0.6,2.2s0.2,1.6,0.7,2.2C38.2,107.8,38.9,108.1,39.8,108.1z"/>
	<path fill="#FFFFFF" d="M61.1,94.3v-2.4h2.8l1-4.7h2v4.7h7.2v2.4h-7.2v10.9c0,0.9,0.2,1.5,0.7,2c0.5,0.4,1.3,0.6,2.3,0.6
		c1.5,0,3.1-0.2,5-0.6v2.3c-1.9,0.5-3.8,0.8-5.6,0.8c-1.8,0-3.2-0.4-4.1-1.1c-0.9-0.8-1.4-2-1.4-3.6V94.3H61.1z"/>
	<path fill="#FFFFFF" d="M89.5,101.6c0,2,0.4,3.6,1.3,4.8c0.9,1.1,2.1,1.7,3.7,1.7c1.1,0,2.2-0.2,3-0.7c0.9-0.5,1.4-1.2,1.7-2
		l2.6,0.8c-0.5,1.4-1.4,2.4-2.7,3.2c-1.3,0.7-2.9,1.1-4.7,1.1c-2.6,0-4.7-0.8-6.1-2.5c-1.4-1.6-2.1-4-2.1-7c0-3,0.7-5.3,2.1-6.9
		c1.4-1.6,3.4-2.4,6-2.4c2.6,0,4.6,0.8,6,2.4s2,4,2,7.2v0.4H89.5z M94.5,93.8c-1.5,0-2.7,0.5-3.5,1.5c-0.9,1-1.3,2.3-1.4,4h9.8
		C99,95.7,97.4,93.8,94.5,93.8z"/>
	<path fill="#FFFFFF" d="M127.9,94.7c-1.2-0.2-2.4-0.3-3.5-0.3c-1.8,0-3.2,0.7-4.3,2c-1.1,1.3-1.7,3.1-1.7,5.1v8.5h-3V98.3
		c0-0.8-0.1-1.8-0.2-3c-0.2-1.1-0.4-2.3-0.6-3.4h2.9c0.4,1.5,0.7,2.9,0.8,4.2h0.1c0.6-1.2,1.1-2.2,1.6-2.8c0.5-0.6,1.2-1,1.9-1.3
		s1.6-0.4,2.7-0.4c1.2,0,2.3,0.1,3.4,0.3V94.7z"/>
	<path fill="#FFFFFF" d="M149.1,107.7h6.4v2.4h-16.4v-2.4h7.1V94.3h-5.3v-2.4h8.3V107.7z M145.8,88.4v-3.2h3.3v3.2H145.8z"/>
	<path fill="#FFFFFF" d="M177.4,110V98.4c0-1.5-0.3-2.6-0.9-3.4c-0.6-0.7-1.5-1.1-2.8-1.1c-1.4,0-2.5,0.5-3.4,1.5
		c-0.9,1-1.3,2.4-1.3,4.1V110h-3V95.8c0-2.1,0-3.4-0.1-3.9h2.8c0,0.1,0,0.2,0,0.5s0,0.5,0,0.8s0,0.9,0.1,1.8h0
		c1.2-2.3,3.1-3.4,5.8-3.4c1.9,0,3.4,0.5,4.3,1.6s1.4,2.6,1.4,4.8V110H177.4z"/>
	<path fill="#FFFFFF" d="M199.5,117.1c-1.9,0-3.4-0.4-4.5-1.2c-1.1-0.8-1.9-1.9-2.2-3.3l3.1-0.4c0.2,0.8,0.6,1.5,1.2,1.9
		c0.6,0.5,1.5,0.7,2.5,0.7c2.8,0,4.1-1.8,4.1-5.3v-3.2h0c-0.5,1.1-1.3,2-2.3,2.6c-1,0.6-2.1,0.9-3.5,0.9c-2.2,0-3.8-0.7-4.8-2.2
		s-1.5-3.7-1.5-6.8c0-3.2,0.5-5.5,1.6-7c1.1-1.5,2.8-2.2,5-2.2c1.3,0,2.4,0.3,3.3,0.9s1.6,1.4,2.1,2.5h0c0-0.3,0-0.9,0.1-1.7
		c0-0.8,0.1-1.3,0.1-1.4h2.9c-0.1,0.6-0.1,1.8-0.1,3.7v13.8c0,2.5-0.6,4.4-1.8,5.7C203.8,116.5,201.9,117.1,199.5,117.1z
		 M203.7,100.8c0-2.2-0.4-3.8-1.3-5.1s-2-1.8-3.4-1.8c-1.5,0-2.6,0.5-3.3,1.6c-0.7,1.1-1,2.8-1,5.3c0,1.7,0.1,3,0.4,4
		c0.3,1,0.7,1.7,1.3,2.1c0.6,0.4,1.4,0.7,2.5,0.7c0.9,0,1.8-0.3,2.5-0.8s1.3-1.3,1.7-2.3C203.5,103.5,203.7,102.2,203.7,100.8z"/>
	<path fill="#FFFFFF" d="M259.6,110.2c-0.8,0-1.6-0.2-2.4-0.6c-0.8-0.4-1.5-0.9-2-1.6c-1.7,1.5-3.6,2.3-5.8,2.3
		c-2.2,0-3.9-0.6-5.2-1.7c-1.2-1.1-1.8-2.7-1.8-4.6c0-3,1.6-5.3,4.9-7c-0.4-0.7-0.7-1.4-0.9-2.3c-0.2-0.9-0.4-1.7-0.4-2.4
		c0-1.5,0.5-2.7,1.5-3.6c1-0.9,2.5-1.4,4.3-1.4c1.6,0,2.9,0.4,3.9,1.2c1,0.8,1.5,1.9,1.5,3.3c0,0.8-0.2,1.6-0.7,2.2
		c-0.4,0.7-1.1,1.3-1.9,1.8s-2.2,1.3-4.2,2.1c1.5,2.6,3,4.7,4.6,6.5c1-2,1.7-4.3,2.1-6.8l2.4,0.7c-0.5,2.6-1.4,5.2-2.7,7.7
		c0.5,0.6,1,1,1.5,1.3c0.5,0.3,1,0.4,1.5,0.4c0.6,0,1.2-0.1,1.6-0.3v2.3C261,110.1,260.4,110.2,259.6,110.2z M253.5,106.4
		c-2-2.3-3.8-4.7-5.3-7.4c-2,1.1-3,2.7-3,4.9c0,1.3,0.4,2.3,1.2,3.1c0.8,0.8,1.8,1.1,3.2,1.1c0.7,0,1.4-0.2,2.1-0.5
		S253,107,253.5,106.4z M254.7,91.9c0-0.8-0.3-1.4-0.8-1.8c-0.5-0.5-1.2-0.7-2.1-0.7c-1,0-1.8,0.3-2.4,0.8c-0.6,0.5-0.9,1.3-0.9,2.2
		c0,1.2,0.3,2.5,1,3.7c1.8-0.8,3-1.3,3.5-1.7c0.5-0.4,1-0.7,1.3-1.2S254.7,92.4,254.7,91.9z"/>
	<path fill="#FFFFFF" d="M308.6,107.1c-0.5,1.2-1.3,2-2.2,2.5c-0.9,0.5-2,0.8-3.4,0.8c-2.3,0-3.9-0.8-5-2.3s-1.6-3.9-1.6-7
		c0-6.3,2.2-9.5,6.6-9.5c1.3,0,2.5,0.2,3.4,0.7s1.6,1.3,2.2,2.4h0l0-2.5v-7h3v21.1c0,1.9,0,3.1,0.1,3.7h-2.9c0-0.2-0.1-0.6-0.1-1.2
		C308.7,108.2,308.7,107.6,308.6,107.1L308.6,107.1z M299.6,101c0,2.5,0.3,4.3,1,5.4c0.7,1.1,1.7,1.7,3.2,1.7c1.6,0,2.8-0.6,3.6-1.8
		s1.2-3,1.2-5.6c0-2.4-0.4-4.1-1.1-5.2s-2-1.6-3.6-1.6c-1.5,0-2.6,0.6-3.3,1.7C300,96.8,299.6,98.6,299.6,101z"/>
	<path fill="#FFFFFF" d="M325.9,101.6c0,2,0.4,3.6,1.3,4.8c0.9,1.1,2.1,1.7,3.7,1.7c1.1,0,2.2-0.2,3-0.7s1.4-1.2,1.7-2l2.6,0.8
		c-0.5,1.4-1.4,2.4-2.7,3.2c-1.3,0.7-2.9,1.1-4.7,1.1c-2.6,0-4.7-0.8-6.1-2.5c-1.4-1.6-2.1-4-2.1-7c0-3,0.7-5.3,2.1-6.9
		c1.4-1.6,3.4-2.4,6-2.4c2.6,0,4.6,0.8,6,2.4c1.3,1.6,2,4,2,7.2v0.4H325.9z M330.8,93.8c-1.5,0-2.7,0.5-3.5,1.5
		c-0.9,1-1.3,2.3-1.4,4h9.8C335.4,95.7,333.8,93.8,330.8,93.8z"/>
	<path fill="#FFFFFF" d="M359.1,107.7h6.4v2.4H349v-2.4h7.1V87.6h-4.8v-2.4h7.8V107.7z"/>
	<path fill="#FFFFFF" d="M385.5,107.7h6.4v2.4h-16.4v-2.4h7.1V94.3h-5.3v-2.4h8.3V107.7z M382.1,88.4v-3.2h3.3v3.2H382.1z"/>
	<path fill="#FFFFFF" d="M411.2,110h-3.6l-7.2-18.1h3.4l4.5,11.8l0.3,0.9l0.9,3.1l0.6-2l0.7-2l4.6-11.8h3.4L411.2,110z"/>
	<path fill="#FFFFFF" d="M430.9,101.6c0,2,0.4,3.6,1.3,4.8c0.9,1.1,2.1,1.7,3.7,1.7c1.1,0,2.2-0.2,3-0.7s1.4-1.2,1.7-2l2.6,0.8
		c-0.5,1.4-1.4,2.4-2.7,3.2c-1.3,0.7-2.9,1.1-4.7,1.1c-2.6,0-4.7-0.8-6.1-2.5c-1.4-1.6-2.1-4-2.1-7c0-3,0.7-5.3,2.1-6.9
		c1.4-1.6,3.4-2.4,6-2.4c2.6,0,4.6,0.8,6,2.4c1.3,1.6,2,4,2,7.2v0.4H430.9z M435.9,93.8c-1.5,0-2.7,0.5-3.5,1.5
		c-0.9,1-1.3,2.3-1.4,4h9.8C440.4,95.7,438.8,93.8,435.9,93.8z"/>
	<path fill="#FFFFFF" d="M469.3,94.7c-1.2-0.2-2.4-0.3-3.5-0.3c-1.8,0-3.2,0.7-4.3,2c-1.1,1.3-1.7,3.1-1.7,5.1v8.5h-3V98.3
		c0-0.8-0.1-1.8-0.2-3c-0.2-1.1-0.4-2.3-0.6-3.4h2.9c0.4,1.5,0.7,2.9,0.8,4.2h0.1c0.6-1.2,1.1-2.2,1.6-2.8c0.5-0.6,1.2-1,1.9-1.3
		s1.6-0.4,2.7-0.4c1.2,0,2.3,0.1,3.4,0.3V94.7z"/>
	<path fill="#FFFFFF" d="M482.9,117.1c-0.8,0-1.5-0.1-2.1-0.2v-2.3c0.4,0.1,0.9,0.1,1.4,0.1c0.9,0,1.7-0.3,2.5-1
		c0.8-0.7,1.4-1.7,2-3.1l0.3-0.8l-7.9-17.9h3.2l4.4,10.7c1,2.5,1.6,3.9,1.6,4.2l0.7-1.8l5.2-13.1h3.2l-7.6,18.1
		c-1,2.6-2,4.5-3.1,5.5C485.7,116.6,484.4,117.1,482.9,117.1z"/>
</g>
</svg>
