<?xml version="1.0" encoding="utf-8"?>
<!-- Generator: Adobe Illustrator 17.1.0, SVG Export Plug-In . SVG Version: 6.00 Build 0)  -->
<!DOCTYPE svg PUBLIC "-//W3C//DTD SVG 1.1//EN" "http://www.w3.org/Graphics/SVG/1.1/DTD/svg11.dtd">
<svg version="1.1" id="Layer_1" xmlns="http://www.w3.org/2000/svg" xmlns:xlink="http://www.w3.org/1999/xlink" x="0px" y="0px"
	 viewBox="0 0 512 136" enable-background="new 0 0 512 136" xml:space="preserve">
<g>
	<path fill="#FFFFFF" d="M39.4,40.5v26.2h-8.4V40.5L9.2,6.1h9.2l16.8,27.4L51.9,6.1h9.2L39.4,40.5z"/>
	<path fill="#FFFFFF" d="M70,66.7V6.1h41.3v7H78.6v19h30V39h-30v20.7h34.5v7H70z"/>
	<path fill="#FFFFFF" d="M168.6,50.1c0,5.5-2,9.8-6,12.9c-4,3.1-9.8,4.6-17.2,4.6c-13.7,0-21.6-5.4-23.9-16.1l8.3-1.7
		c0.8,3.9,2.6,6.7,5.2,8.4c2.6,1.8,6.2,2.6,10.6,2.6c4.8,0,8.4-0.9,10.8-2.8c2.5-1.9,3.7-4.5,3.7-7.9c0-2.1-0.5-3.8-1.5-5.1
		c-1-1.3-2.3-2.4-3.8-3.2c-1.6-0.8-3.4-1.5-5.4-2c-2-0.5-4-1-6-1.5c-4.8-1.3-8.3-2.4-10.3-3.4c-2.1-1-3.7-2.1-4.9-3.4
		c-1.2-1.3-2.2-2.7-2.8-4.4c-0.6-1.6-0.9-3.6-0.9-5.8c0-5.2,1.8-9.2,5.5-12c3.6-2.8,8.9-4.2,15.7-4.2c6.3,0,11.2,1.1,14.6,3.3
		c3.4,2.2,5.7,6,7,11.2l-8.4,1.5c-0.7-3.4-2.2-5.8-4.3-7.3c-2.2-1.5-5.1-2.3-8.8-2.3c-8.5,0-12.7,3.2-12.7,9.6
		c0,1.8,0.4,3.3,1.2,4.4c0.8,1.1,1.9,2.1,3.2,2.8c1.4,0.7,2.9,1.3,4.8,1.8c1.8,0.5,3.8,1,5.8,1.5c4.2,1,7.2,1.9,9,2.6
		c1.8,0.7,3.5,1.5,4.9,2.4c1.4,0.9,2.6,2,3.7,3.2c1,1.2,1.8,2.7,2.4,4.3C168.4,45.9,168.6,47.8,168.6,50.1z"/>
	<path fill="#FFFFFF" d="M212.5,66.7v-28H189v28h-8.6V6.1h8.6v25.4h23.4V6.1h8.6v60.6H212.5z"/>
	<path fill="#FFFFFF" d="M245.7,13.1v22.2h30.4v7.1h-30.4v24.3h-8.6V6.1h40v7H245.7z"/>
	<path fill="#68BE60" d="M334.2,36.1c0,10.1-2,17.9-6,23.3c-4,5.5-9.7,8.2-17.1,8.2c-7.5,0-13.1-2.7-17.1-8
		c-3.9-5.4-5.9-13.2-5.9-23.4c0-10.1,1.9-17.8,5.8-23c3.9-5.3,9.6-7.9,17.2-7.9c7.4,0,13.1,2.6,17,7.8
		C332.2,18.1,334.2,25.9,334.2,36.1z M325.2,36.1c0-16-4.6-23.9-13.9-23.9c-9.3,0-14,8-14,23.9c0,8.1,1.2,14.2,3.5,18.3
		c2.4,4.1,5.8,6.2,10.4,6.2c4.9,0,8.4-2.1,10.6-6.3C324,50.2,325.2,44.1,325.2,36.1z"/>
	<path fill="#68BE60" d="M389.4,36.1c0,10.1-2,17.9-6,23.3c-4,5.5-9.7,8.2-17.1,8.2c-7.5,0-13.1-2.7-17.1-8
		c-3.9-5.4-5.9-13.2-5.9-23.4c0-10.1,1.9-17.8,5.8-23c3.9-5.3,9.6-7.9,17.2-7.9c7.4,0,13.1,2.6,17,7.8
		C387.4,18.1,389.4,25.9,389.4,36.1z M380.4,36.1c0-16-4.6-23.9-13.9-23.9c-9.3,0-14,8-14,23.9c0,8.1,1.2,14.2,3.5,18.3
		c2.4,4.1,5.8,6.2,10.4,6.2c4.9,0,8.4-2.1,10.6-6.3C379.3,50.2,380.4,44.1,380.4,36.1z"/>
	<path fill="#FFFFFF" d="M444.6,35.8c0,9.9-2.3,17.5-6.9,22.9c-4.6,5.3-11.2,8-19.7,8h-16.6V6.1h14c9.9,0,17.2,2.5,22,7.4
		C442.1,18.4,444.6,25.9,444.6,35.8z M435.9,35.8c0-7.9-1.6-13.7-4.9-17.3c-3.3-3.6-8.5-5.4-15.7-5.4h-5.4v46.6h7.3
		c6.3,0,11.1-2,14.2-6C434.4,49.7,435.9,43.8,435.9,35.8z"/>
	<path fill="#FFFFFF" d="M495.7,66.7l-6.2-17.2h-25.3L458,66.7h-8.8l22.9-60.6h9.7l22.5,60.6H495.7z M476.9,12.6l-0.5,1.8l-3.1,9.5
		l-6.8,19h20.8l-7.8-22.5L476.9,12.6z"/>
</g>
<g>
	<path fill="#FFFFFF" d="M9.6,93.6c0-3.8,0.9-6.8,2.8-8.9c1.8-2.1,4.5-3.1,8-3.1c2.6,0,4.7,0.6,6.4,1.9c1.7,1.2,2.7,2.9,3.1,5
		l-4.1,0.3c-0.2-1.3-0.8-2.3-1.7-3.1c-0.9-0.7-2.2-1.1-3.9-1.1c-2.2,0-3.9,0.7-4.9,2.1c-1,1.4-1.6,3.6-1.6,6.8
		c0,3.2,0.5,5.5,1.6,6.9c1,1.5,2.7,2.2,4.9,2.2c1.5,0,2.8-0.4,3.8-1.1c1-0.8,1.6-1.9,1.9-3.5l4.1,0.3c-0.2,1.4-0.7,2.6-1.5,3.7
		c-0.8,1.1-2,2-3.4,2.6c-1.4,0.6-3,0.9-4.7,0.9c-3.5,0-6.1-1-8-3.1C10.6,100.5,9.6,97.5,9.6,93.6z"/>
	<path fill="#FFFFFF" d="M56.6,102.8c0.4,0,0.8,0,1.3-0.1v2.4c-1,0.2-2,0.3-3,0.3c-1.4,0-2.5-0.4-3.1-1.1c-0.6-0.7-1-1.9-1.1-3.5
		h-0.1c-0.9,1.7-2,3-3.3,3.7c-1.3,0.8-2.8,1.1-4.7,1.1c-2.2,0-3.9-0.6-5.1-1.8c-1.1-1.2-1.7-2.9-1.7-5c0-5,3.2-7.5,9.7-7.6l5-0.1
		v-1.3c0-1.9-0.4-3.2-1.1-4c-0.8-0.8-2-1.2-3.6-1.2c-1.7,0-2.9,0.3-3.6,0.9c-0.7,0.6-1.2,1.5-1.3,2.8l-4-0.4c0.7-4.2,3.7-6.2,9-6.2
		c2.8,0,5,0.7,6.4,2s2.1,3.3,2.1,5.8v9.9c0,1.1,0.1,2,0.4,2.6C55.2,102.5,55.7,102.8,56.6,102.8z M43.6,102.7c1.4,0,2.6-0.3,3.6-1
		s1.9-1.5,2.5-2.6c0.6-1.1,0.9-2.2,0.9-3.4v-1.9l-4.1,0.1c-1.7,0-3,0.2-3.8,0.6c-0.9,0.3-1.6,0.9-2.1,1.6c-0.5,0.7-0.7,1.6-0.7,2.8
		s0.3,2.1,0.9,2.8C41.4,102.3,42.4,102.7,43.6,102.7z"/>
	<path fill="#FFFFFF" d="M63.4,85.1v-3H67l1.2-6h2.6v6H80v3h-9.2V99c0,1.1,0.3,2,0.9,2.5c0.6,0.5,1.6,0.8,3,0.8c1.9,0,4-0.2,6.3-0.7
		v2.9c-2.4,0.7-4.8,1-7.1,1c-2.3,0-4-0.5-5.2-1.5c-1.2-1-1.7-2.5-1.7-4.6V85.1H63.4z"/>
	<path fill="#FFFFFF" d="M92.4,94.4c0,2.6,0.6,4.6,1.7,6.1c1.1,1.5,2.7,2.2,4.7,2.2c1.5,0,2.7-0.3,3.9-0.9c1.1-0.6,1.8-1.5,2.2-2.6
		l3.4,1c-0.6,1.8-1.8,3.1-3.4,4.1c-1.7,0.9-3.7,1.4-6,1.4c-3.4,0-5.9-1-7.7-3.1c-1.8-2.1-2.7-5.1-2.7-9c0-3.8,0.9-6.7,2.7-8.8
		c1.8-2,4.3-3.1,7.7-3.1c3.3,0,5.9,1,7.6,3.1s2.6,5.1,2.6,9.2v0.5H92.4z M98.8,84.5c-1.9,0-3.4,0.6-4.5,1.9c-1.1,1.2-1.7,3-1.8,5.1
		h12.5C104.5,86.8,102.5,84.5,98.8,84.5z"/>
	<path fill="#FFFFFF" d="M134.1,85.6c-1.6-0.3-3.1-0.4-4.5-0.4c-2.3,0-4.1,0.9-5.5,2.6s-2.1,3.9-2.1,6.6v10.8H118v-15
		c0-1.1-0.1-2.4-0.3-3.8c-0.2-1.5-0.5-2.9-0.8-4.3h3.6c0.6,2,0.9,3.7,1,5.3h0.1c0.7-1.6,1.4-2.8,2.1-3.5c0.7-0.7,1.5-1.3,2.4-1.7
		c0.9-0.4,2.1-0.6,3.4-0.6c1.5,0,2.9,0.1,4.4,0.4V85.6z"/>
	<path fill="#FFFFFF" d="M153.9,102.2h8.1v3h-21v-3h9v-17h-6.8v-3h10.6V102.2z M149.6,77.6v-4.1h4.3v4.1H149.6z"/>
	<path fill="#FFFFFF" d="M182.7,105.2V90.4c0-1.9-0.4-3.4-1.1-4.3c-0.7-0.9-1.9-1.4-3.6-1.4c-1.8,0-3.2,0.6-4.3,1.9s-1.7,3-1.7,5.2
		v13.4h-3.8V87c0-2.7,0-4.3-0.1-4.9h3.6c0,0.1,0,0.3,0,0.6c0,0.3,0,0.7,0.1,1.1c0,0.4,0,1.2,0.1,2.3h0.1c1.5-2.9,4-4.4,7.4-4.4
		c2.5,0,4.3,0.7,5.5,2c1.2,1.3,1.8,3.4,1.8,6.1v15.4H182.7z"/>
	<path fill="#FFFFFF" d="M203.6,114.2c-2.4,0-4.3-0.5-5.8-1.5c-1.5-1-2.4-2.4-2.8-4.2l3.9-0.5c0.2,1.1,0.8,1.9,1.6,2.5
		s1.9,0.9,3.2,0.9c3.5,0,5.3-2.2,5.3-6.7v-4.1h0c-0.7,1.5-1.7,2.6-2.9,3.3c-1.2,0.8-2.7,1.1-4.4,1.1c-2.8,0-4.9-0.9-6.2-2.8
		c-1.3-1.8-2-4.7-2-8.7c0-4,0.7-7,2.1-8.9c1.4-1.9,3.5-2.8,6.4-2.8c1.6,0,3,0.4,4.2,1.1c1.2,0.7,2.1,1.8,2.7,3.2h0.1
		c0-0.4,0-1.1,0.1-2.2c0.1-1,0.1-1.6,0.2-1.8h3.6c-0.1,0.8-0.1,2.4-0.1,4.8v17.6c0,3.2-0.8,5.7-2.3,7.3S206.7,114.2,203.6,114.2z
		 M209,93.4c0-2.7-0.5-4.9-1.6-6.5c-1.1-1.6-2.5-2.4-4.4-2.4c-1.9,0-3.4,0.7-4.2,2s-1.3,3.6-1.3,6.8c0,2.1,0.2,3.8,0.5,5.1
		s0.9,2.2,1.7,2.7s1.8,0.9,3.2,0.9c1.2,0,2.3-0.3,3.2-1s1.6-1.7,2.1-3C208.7,96.8,209,95.2,209,93.4z"/>
	<path fill="#FFFFFF" d="M265.8,105.4c-1,0-2.1-0.2-3.1-0.7c-1-0.5-1.9-1.2-2.6-2c-2.2,1.9-4.6,2.9-7.4,2.9c-2.8,0-5-0.7-6.6-2.1
		c-1.6-1.4-2.3-3.4-2.3-5.9c0-3.8,2.1-6.8,6.2-8.9c-0.5-0.9-0.8-1.8-1.1-2.9c-0.3-1.1-0.5-2.1-0.5-3.1c0-1.9,0.7-3.5,2-4.6
		s3.2-1.7,5.5-1.7c2.1,0,3.7,0.5,5,1.5c1.2,1,1.9,2.4,1.9,4.2c0,1.1-0.3,2-0.8,2.8s-1.4,1.6-2.4,2.3c-1.1,0.7-2.9,1.6-5.4,2.7
		c1.9,3.3,3.8,6.1,5.9,8.3c1.3-2.6,2.1-5.5,2.7-8.7l3.1,0.9c-0.6,3.4-1.8,6.6-3.5,9.9c0.6,0.8,1.3,1.3,2,1.7
		c0.7,0.4,1.3,0.5,1.9,0.5c0.8,0,1.5-0.1,2-0.3v2.9C267.5,105.3,266.7,105.4,265.8,105.4z M258,100.6c-2.6-2.9-4.8-6-6.7-9.4
		c-2.5,1.4-3.8,3.5-3.8,6.3c0,1.6,0.5,2.9,1.5,3.9s2.3,1.5,4,1.5c0.9,0,1.8-0.2,2.7-0.6S257.3,101.3,258,100.6z M259.5,82
		c0-1-0.3-1.8-1-2.4c-0.7-0.6-1.6-0.9-2.6-0.9c-1.3,0-2.3,0.3-3.1,1c-0.8,0.7-1.2,1.6-1.2,2.8c0,1.6,0.4,3.2,1.3,4.8
		c2.3-1,3.8-1.7,4.5-2.1c0.7-0.4,1.2-0.9,1.6-1.5C259.3,83.3,259.5,82.7,259.5,82z"/>
	<path fill="#FFFFFF" d="M313.7,101.5c-0.7,1.5-1.6,2.6-2.8,3.3c-1.2,0.7-2.6,1-4.3,1c-2.9,0-5-1-6.3-3c-1.4-2-2-5-2-8.9
		c0-8.1,2.8-12.1,8.4-12.1c1.7,0,3.2,0.3,4.3,0.9c1.2,0.6,2.1,1.6,2.8,3h0l0-3.2v-8.9h3.8v26.9c0,2.4,0,4,0.1,4.8H314
		c-0.1-0.2-0.1-0.7-0.1-1.6c0-0.8-0.1-1.5-0.1-2.2H313.7z M302.3,93.7c0,3.2,0.4,5.5,1.3,6.9c0.8,1.4,2.2,2.2,4.1,2.2
		c2.1,0,3.6-0.8,4.6-2.3s1.5-3.9,1.5-7.2c0-3.1-0.5-5.3-1.4-6.7c-1-1.4-2.5-2.1-4.6-2.1c-1.9,0-3.3,0.7-4.2,2.2
		S302.3,90.6,302.3,93.7z"/>
	<path fill="#FFFFFF" d="M328.4,94.4c0,2.6,0.6,4.6,1.7,6.1c1.1,1.5,2.7,2.2,4.7,2.2c1.5,0,2.7-0.3,3.9-0.9c1.1-0.6,1.8-1.5,2.2-2.6
		l3.4,1c-0.6,1.8-1.8,3.1-3.4,4.1c-1.7,0.9-3.7,1.4-6,1.4c-3.4,0-5.9-1-7.7-3.1c-1.8-2.1-2.7-5.1-2.7-9c0-3.8,0.9-6.7,2.7-8.8
		c1.8-2,4.3-3.1,7.7-3.1c3.3,0,5.9,1,7.6,3.1s2.6,5.1,2.6,9.2v0.5H328.4z M334.8,84.5c-1.9,0-3.4,0.6-4.5,1.9
		c-1.1,1.2-1.7,3-1.8,5.1h12.5C340.5,86.8,338.5,84.5,334.8,84.5z"/>
	<path fill="#FFFFFF" d="M363.5,102.2h8.1v3h-21v-3h9V76.5h-6.2v-3h10V102.2z"/>
	<path fill="#FFFFFF" d="M389.9,102.2h8.1v3h-21v-3h9v-17h-6.8v-3h10.6V102.2z M385.6,77.6v-4.1h4.3v4.1H385.6z"/>
	<path fill="#FFFFFF" d="M415.5,105.2h-4.5l-9.2-23.1h4.3l5.7,15l0.4,1.1l1.1,3.9l0.7-2.5l0.8-2.5l5.9-15.1h4.3L415.5,105.2z"/>
	<path fill="#FFFFFF" d="M433.3,94.4c0,2.6,0.6,4.6,1.7,6.1c1.1,1.5,2.7,2.2,4.7,2.2c1.5,0,2.7-0.3,3.9-0.9c1.1-0.6,1.8-1.5,2.2-2.6
		l3.4,1c-0.6,1.8-1.8,3.1-3.4,4.1c-1.7,0.9-3.7,1.4-6,1.4c-3.4,0-5.9-1-7.7-3.1c-1.8-2.1-2.7-5.1-2.7-9c0-3.8,0.9-6.7,2.7-8.8
		c1.8-2,4.3-3.1,7.7-3.1c3.3,0,5.9,1,7.6,3.1s2.6,5.1,2.6,9.2v0.5H433.3z M439.7,84.5c-1.9,0-3.4,0.6-4.5,1.9
		c-1.1,1.2-1.7,3-1.8,5.1h12.5C445.4,86.8,443.4,84.5,439.7,84.5z"/>
	<path fill="#FFFFFF" d="M475,85.6c-1.6-0.3-3.1-0.4-4.5-0.4c-2.3,0-4.1,0.9-5.5,2.6s-2.1,3.9-2.1,6.6v10.8H459v-15
		c0-1.1-0.1-2.4-0.3-3.8c-0.2-1.5-0.5-2.9-0.8-4.3h3.6c0.6,2,0.9,3.7,1,5.3h0.1c0.7-1.6,1.4-2.8,2.1-3.5c0.7-0.7,1.5-1.3,2.4-1.7
		c0.9-0.4,2.1-0.6,3.4-0.6c1.5,0,2.9,0.1,4.4,0.4V85.6z"/>
	<path fill="#FFFFFF" d="M485.1,114.3c-1.1,0-1.9-0.1-2.6-0.2v-2.9c0.5,0.1,1.1,0.1,1.8,0.1c1.1,0,2.2-0.4,3.2-1.3
		c1-0.8,1.8-2.2,2.5-4l0.4-1l-10-22.9h4.1l5.6,13.7c1.3,3.2,2,5,2.1,5.4l0.9-2.3l6.6-16.8h4.1l-9.7,23.1c-1.3,3.3-2.6,5.7-3.9,7
		C488.7,113.6,487,114.3,485.1,114.3z"/>
</g>
</svg>
