<svg width="48" height="48" viewBox="0 0 48 48" fill="none" xmlns="http://www.w3.org/2000/svg">
<path d="M16.25 19.08L0.75 13.269V41.388L16.25 47.2V19.08Z" fill="#4A4F60"/>
<path d="M31.75 13.457V41.388L47.25 47.2V19.08L31.75 13.457Z" fill="#4A4F60"/>
<path d="M31.75 13.46V41.39L16.25 47.2V19.08L18.71 18.19L20.33 17.6L31.75 13.46Z" fill="#3A3A3A"/>
<path d="M44.03 13.08C44.0314 14.7587 43.6876 16.4197 43.02 17.96C42.87 18.3 42.71 18.63 42.53 18.96L42.51 18.99L33.87 31.73L33.29 32.58L31.75 34.85L31.68 34.74L20.99 18.99L20.98 18.98C20.7354 18.5337 20.5183 18.0728 20.33 17.6C19.7621 16.1607 19.4703 14.6273 19.47 13.08C19.4624 10.7261 20.1437 8.42135 21.43 6.44997C22.2944 5.08594 23.4274 3.91211 24.76 2.99997C25.1452 2.72189 25.5496 2.47127 25.97 2.24997C27.7459 1.2929 29.7327 0.794491 31.75 0.799971C35.0066 0.800767 38.1296 2.0948 40.4324 4.39758C42.7352 6.70035 44.0292 9.82336 44.03 13.08V13.08Z" fill="#5ACC78"/>
<path d="M44.03 13.08C44.0314 14.7587 43.6876 16.4197 43.02 17.96C42.87 18.3 42.71 18.63 42.53 18.96L42.51 18.99L33.87 31.73L33.29 32.58L22.94 17.32L22.93 17.31C21.6842 15.0372 21.1903 12.4283 21.519 9.85752C21.8478 7.28669 22.9824 4.88605 24.76 2.99997C25.1452 2.72189 25.5496 2.47127 25.97 2.24997C27.7459 1.2929 29.7327 0.794491 31.75 0.799971C35.0066 0.800767 38.1296 2.0948 40.4324 4.39758C42.7352 6.70035 44.0292 9.82336 44.03 13.08V13.08Z" fill="#63EA86"/>
<path d="M39.41 13C39.4101 14.8281 38.7536 16.5954 37.56 17.98C37.41 18.15 37.26 18.31 37.09 18.47C36.0133 19.5228 34.6499 20.2345 33.1705 20.5158C31.6912 20.7972 30.1617 20.6357 28.7737 20.0517C27.3857 19.4677 26.2009 18.487 25.3677 17.2326C24.5346 15.9783 24.0901 14.5059 24.09 13C24.0903 11.495 24.5332 10.0232 25.3635 8.7679C26.1939 7.51261 27.375 6.52919 28.76 5.94003H28.77C29.7144 5.54675 30.727 5.34289 31.75 5.34003C33.7815 5.34029 35.7297 6.14741 37.1661 7.58388C38.6026 9.02035 39.4097 10.9685 39.41 13V13Z" fill="#4A4F60"/>
<path d="M38.03 14.82C38.0322 16.0968 37.7086 17.353 37.09 18.47C36.0133 19.5228 34.6499 20.2344 33.1705 20.5158C31.6912 20.7971 30.1617 20.6357 28.7737 20.0517C27.3857 19.4676 26.2009 18.487 25.3677 17.2326C24.5346 15.9782 24.0901 14.5058 24.09 13C24.0906 11.7216 24.4102 10.4636 25.02 9.33997C25.6956 8.66388 26.4975 8.12706 27.38 7.75997H27.39C28.3344 7.3667 29.347 7.16284 30.37 7.15997C32.4015 7.16024 34.3497 7.96736 35.7861 9.40383C37.2226 10.8403 38.0297 12.7885 38.03 14.82V14.82Z" fill="#3A3A3A"/>
<path d="M31.68 34.74L30.49 36.49L19.73 20.63L19.72 20.62C19.2959 19.8491 18.9572 19.0343 18.71 18.19L20.33 17.6C20.5183 18.0728 20.7354 18.5337 20.98 18.98L20.99 18.99L31.68 34.74Z" fill="#242424"/>
</svg>
