<svg width="34" height="48" viewBox="0 0 34 48" fill="none" xmlns="http://www.w3.org/2000/svg">
<path fill-rule="evenodd" clip-rule="evenodd" d="M28.5197 5.16668C25.239 1.94445 21.2873 0.333344 16.6645 0.333344C12.0417 0.333344 8.10855 1.94445 4.86513 5.16668C1.62171 8.3889 0 12.2963 0 16.8889C0 19.1852 0.596491 21.8519 1.78947 24.8889C2.98246 27.9259 4.32456 30.6482 5.81579 33.0556C7.30702 35.463 9.00329 37.9445 10.9046 40.5C12.8059 43.0556 14.1294 44.7778 14.875 45.6667C15.6206 46.5556 16.2171 47.2222 16.6645 47.6667L18.4539 45.7778C19.5724 44.4445 20.9518 42.6482 22.5921 40.3889C24.2325 38.1296 25.8728 35.7222 27.5132 33.1667C29.1535 30.6111 30.5515 27.8333 31.7072 24.8333C32.8629 21.8333 33.4408 19.1852 33.4408 16.8889C33.4408 12.2963 31.8004 8.3889 28.5197 5.16668ZM17 26C22.5228 26 27 21.5229 27 16C27 10.4772 22.5228 6.00001 17 6.00001C11.4772 6.00001 7 10.4772 7 16C7 21.5229 11.4772 26 17 26Z" fill="white"/>
</svg>
