<svg width="24" height="16" viewBox="0 0 24 16" fill="none" xmlns="http://www.w3.org/2000/svg">
<path d="M1.11674 0.679986C0.500184 0.679986 0 1.17991 0 1.79673V14.6353C0 15.252 0.500256 15.752 1.11674 15.752H22.8833C23.4998 15.752 24 15.2521 24 14.6352V1.79671C24 1.17998 23.4998 0.679962 22.8833 0.679962H1.11672L1.11674 0.679986ZM7.86974 2.49424C9.23969 2.49424 10.4979 2.97086 11.4855 3.76699C10.6546 4.51048 10.0348 5.4873 9.729 6.5945H10.2083C10.4905 5.6811 11.0032 4.86789 11.679 4.22299C12.3548 4.86789 12.8675 5.6811 13.1497 6.5945H13.6365C13.3265 5.49314 12.7058 4.52215 11.8755 3.7835C12.865 2.97727 14.1282 2.49422 15.504 2.49422C18.679 2.49422 21.2527 5.06827 21.2527 8.24373C21.2527 11.4192 18.679 13.9932 15.504 13.9932C14.1053 13.9932 12.8227 13.494 11.826 12.6635C12.7176 11.8878 13.3749 10.8479 13.6755 9.66498H13.2067C12.9398 10.6579 12.4026 11.5409 11.679 12.2315C10.9554 11.5409 10.4189 10.6579 10.152 9.66498H9.70572C10.0081 10.8308 10.6568 11.8561 11.535 12.6245C10.5401 13.4447 9.26256 13.9377 7.86972 13.9377C4.69476 13.9377 2.121 11.3761 2.121 8.21598C2.121 5.05591 4.69476 2.49424 7.86974 2.49424ZM15.0727 6.53599C14.382 6.53599 13.71 7.13987 13.71 8.27373C13.71 9.0256 14.073 9.52173 14.787 9.52173C14.9889 9.5218 15.3105 9.43924 15.3105 9.43924L15.417 8.78224C15.417 8.78224 15.1235 8.93073 14.922 8.93073C14.4976 8.93073 14.3273 8.6043 14.3273 8.2535C14.3273 7.54182 14.6924 7.15022 15.099 7.15022C15.4039 7.15022 15.6487 7.32273 15.6487 7.32273L15.7463 6.68373C15.7463 6.68373 15.3838 6.53599 15.0727 6.53599H15.0727ZM20.88 6.5915L20.2793 6.59299L20.1503 7.3835C20.1503 7.3835 19.9244 7.07673 19.5713 7.07673C19.0221 7.07673 18.5647 7.72905 18.5647 8.47924C18.5647 8.96349 18.8082 9.43847 19.3073 9.43847C19.6662 9.43847 19.8653 9.19175 19.8653 9.19175L19.839 9.40247H20.4225L20.88 6.5915ZM3.67349 6.59973L3.195 9.41747H3.77174L4.13626 7.29275L4.19026 9.41747H4.60274L5.37226 7.29275L5.031 9.41747H5.64374L6.11626 6.59973H5.16826L4.578 8.32847L4.54726 6.59975H3.67351L3.67349 6.59973ZM9.699 6.78273C9.68597 6.79581 9.35026 8.7317 9.35026 8.96747C9.35026 9.31658 9.54593 9.4725 9.82126 9.46998C10.0185 9.4683 10.1713 9.41874 10.242 9.39798C10.2494 9.39599 10.2637 9.39198 10.2637 9.39198L10.338 8.88798C10.2976 8.88798 10.2382 8.90524 10.1857 8.90524C9.98018 8.90524 9.95741 8.79587 9.97049 8.71473L10.1363 7.6865H10.449L10.5247 7.12922H10.23L10.29 6.78273H9.699V6.78273ZM16.6703 7.06624C16.2677 7.06624 15.9593 7.19898 15.9593 7.19898L15.8737 7.7165C15.8737 7.7165 16.1285 7.61073 16.5135 7.61073C16.7321 7.61073 16.8922 7.63574 16.8922 7.81773C16.8922 7.92827 16.8727 7.96924 16.8727 7.96924C16.8727 7.96924 16.6999 7.95424 16.62 7.95424C16.1124 7.95424 15.579 8.17672 15.579 8.84598C15.579 9.37331 15.9291 9.49398 16.146 9.49398C16.5602 9.49398 16.7388 9.21882 16.7483 9.21798L16.7287 9.4475H17.2455L17.4765 7.7915C17.4766 7.08882 16.8781 7.06622 16.6703 7.06622V7.06624ZM6.97649 7.06924C6.57247 7.06924 6.26249 7.20198 6.26249 7.20198L6.177 7.7195C6.177 7.7195 6.4326 7.61373 6.819 7.61373C7.03841 7.61373 7.19926 7.63883 7.19926 7.82073C7.19926 7.93122 7.17974 7.97224 7.17974 7.97224C7.17974 7.97224 7.00639 7.95724 6.92626 7.95724C6.41666 7.95724 5.88151 8.17936 5.88151 8.84824C5.88151 9.37528 6.23234 9.49624 6.45 9.49624C6.8657 9.49624 7.04496 9.22106 7.05451 9.22024L7.035 9.44973H7.554L7.78574 7.7945C7.78574 7.09223 7.1851 7.06922 6.97649 7.06922V7.06924ZM8.80949 7.06924C8.37564 7.06924 7.935 7.24437 7.935 7.8425C7.935 8.52021 8.66926 8.45174 8.66926 8.73722C8.66926 8.92778 8.46434 8.9435 8.30626 8.9435C8.03266 8.9435 7.78663 8.84896 7.78574 8.8535L7.707 9.37098C7.72116 9.37538 7.87351 9.44373 8.36551 9.44373C8.49761 9.44373 9.25274 9.47728 9.25274 8.69073C9.25274 7.95539 8.55374 8.10114 8.55374 7.80573C8.55374 7.65866 8.66724 7.61224 8.87549 7.61224C8.95819 7.61224 9.27677 7.6385 9.27677 7.6385L9.35026 7.11573C9.35026 7.1158 9.1447 7.06924 8.80951 7.06924H8.80949ZM11.5215 7.06924C10.9186 7.06936 10.4723 7.71765 10.4723 8.44998C10.4723 9.29524 11.0315 9.49624 11.508 9.49624C11.9478 9.49624 12.1417 9.39798 12.1417 9.39798L12.2467 8.82124C12.2467 8.82124 11.9122 8.96824 11.61 8.96824C10.9662 8.96824 11.079 8.48898 11.079 8.48898H12.2977C12.2977 8.48898 12.3765 8.10167 12.3765 7.94373C12.3765 7.54965 12.1798 7.06924 11.5215 7.06924H11.5215ZM13.7048 7.09398C13.4332 7.09398 13.2315 7.45924 13.2315 7.45924L13.2855 7.12398H12.7215L12.3428 9.4385H12.966C13.1425 8.45013 13.1748 7.64759 13.596 7.7945C13.6697 7.41194 13.7413 7.26414 13.8217 7.10224C13.8217 7.10224 13.7839 7.09398 13.7047 7.09398H13.7048ZM18.7545 7.09398C18.4829 7.09398 18.2813 7.45924 18.2813 7.45924L18.3353 7.12398H17.7713L17.3925 9.4385H18.015C18.1916 8.45013 18.2246 7.64759 18.6457 7.7945C18.7196 7.41194 18.7911 7.26414 18.8715 7.10224C18.8715 7.10224 18.8337 7.09398 18.7545 7.09398H18.7545ZM11.5185 7.59124C11.8609 7.59124 11.7983 7.97774 11.7983 8.00898H11.124C11.124 7.9691 11.1878 7.59124 11.5185 7.59124H11.5185ZM19.6658 7.63624C19.8837 7.63617 19.9958 7.78338 19.9958 8.12973C19.9958 8.44398 19.8373 8.86398 19.509 8.86398C19.2911 8.86398 19.1887 8.68406 19.1887 8.40198C19.1887 7.94075 19.3998 7.63624 19.6657 7.63624H19.6658ZM16.671 8.42373C16.7599 8.42385 16.7783 8.43249 16.7933 8.4365C16.7911 8.43614 16.7907 8.43654 16.7993 8.43798C16.8105 8.54106 16.737 9.0245 16.3815 9.0245C16.1982 9.0245 16.1513 8.87874 16.1513 8.79273C16.1513 8.62502 16.2386 8.42373 16.671 8.42373ZM6.97726 8.42598C7.07822 8.4261 7.08924 8.43738 7.10626 8.44024C7.11754 8.54327 7.04371 9.02598 6.687 9.02598C6.50299 9.02598 6.45526 8.88093 6.45526 8.79498C6.45526 8.62737 6.5431 8.42598 6.97726 8.42598Z" fill="white"/>
</svg>
