<svg width="21" height="16" viewBox="0 0 21 16" fill="none" xmlns="http://www.w3.org/2000/svg">
<path d="M6.79263 8.07842C6.79263 8.51426 6.43892 8.84596 5.99072 8.84596C5.65539 8.84596 5.40733 8.66018 5.40733 8.31049C5.40733 7.87465 5.75382 7.52495 6.19874 7.52495C6.53801 7.52495 6.79329 7.72873 6.79329 8.07842H6.79263ZM2.93531 6.34665H2.76404C2.70957 6.34665 2.65445 6.38264 2.64723 6.44307L2.49039 7.39703L2.78963 7.3861C3.19059 7.3861 3.50033 7.33274 3.57317 6.87891C3.65717 6.4 3.34743 6.34665 2.93531 6.34665V6.34665ZM13.2893 6.34665H13.1252C13.0596 6.34665 13.0157 6.38264 13.0084 6.44307L12.8555 7.39703L13.1469 7.3861C13.6207 7.3861 13.9488 7.27875 13.9488 6.74327C13.9449 6.36464 13.599 6.34665 13.2886 6.34665H13.2893ZM21 1.71442V14.2856C20.9998 14.7402 20.8154 15.1762 20.4872 15.4977C20.159 15.8191 19.714 15.9998 19.2498 16H1.75016C1.28604 15.9998 0.840985 15.8191 0.512803 15.4977C0.184621 15.1762 0.000173925 14.7402 0 14.2856V1.71442C0.000173925 1.25978 0.184621 0.823811 0.512803 0.502331C0.840985 0.180851 1.28604 0.000170373 1.75016 0H19.2498C19.714 0.000170373 20.159 0.180851 20.4872 0.502331C20.8154 0.823811 20.9998 1.25978 21 1.71442V1.71442ZM4.67826 6.54978C4.67826 5.7996 4.08765 5.54954 3.41305 5.54954H1.95491C1.9078 5.54989 1.86247 5.56717 1.82751 5.5981C1.79255 5.62903 1.7704 5.67145 1.76526 5.71732L1.16743 9.36344C1.15628 9.43479 1.2114 9.50615 1.28424 9.50615H1.97722C2.07565 9.50615 2.16687 9.40265 2.17803 9.30237L2.34208 8.35227C2.37883 8.09514 2.8231 8.18449 2.99831 8.18449C4.04106 8.18449 4.67892 7.57766 4.67892 6.54914L4.67826 6.54978ZM7.7481 6.86412H7.05512C6.91666 6.86412 6.90944 7.06083 6.90222 7.15725C6.69092 6.85384 6.38446 6.79984 6.03797 6.79984C5.14484 6.79984 4.46302 7.56738 4.46302 8.41398C4.46302 9.11016 4.90794 9.564 5.61864 9.564C5.94675 9.564 6.35493 9.38915 6.58461 9.13909C6.5634 9.21132 6.55106 9.28577 6.54786 9.36087C6.54786 9.44315 6.58461 9.50358 6.66467 9.50358H7.29202C7.39046 9.50358 7.47445 9.40008 7.49283 9.2998L7.86491 7.00362C7.87607 6.93548 7.82094 6.86412 7.7481 6.86412V6.86412ZM9.22462 10.3605L11.547 7.05311C11.5654 7.03511 11.5654 7.01712 11.5654 6.99269C11.5654 6.93226 11.5109 6.86798 11.4486 6.86798H10.7484C10.7158 6.86924 10.684 6.87798 10.6555 6.8935C10.627 6.90902 10.6026 6.93089 10.5843 6.95733L9.61836 8.35034L9.2174 7.01133C9.20233 6.9706 9.17514 6.93523 9.13935 6.9098C9.10355 6.88436 9.06079 6.87001 9.01659 6.86862H8.33477C8.27243 6.86862 8.21796 6.9329 8.21796 6.99333C8.21796 7.0364 8.92866 9.0221 8.991 9.21109C8.89257 9.34673 8.24356 10.2325 8.24356 10.3399C8.24356 10.4042 8.29802 10.4543 8.36036 10.4543H9.06056C9.09331 10.4522 9.12513 10.4428 9.15357 10.4267C9.18202 10.4107 9.20632 10.3884 9.22462 10.3618V10.3605ZM15.0322 6.54978C15.0322 5.7996 14.4416 5.54954 13.767 5.54954H12.3194C12.2709 5.54916 12.2239 5.56591 12.187 5.59673C12.1502 5.62755 12.1259 5.67036 12.1186 5.71732L11.528 9.36022C11.5208 9.43158 11.5752 9.50293 11.6448 9.50293H12.3922C12.4651 9.50293 12.5195 9.44958 12.5379 9.38851L12.702 8.35291C12.7387 8.09578 13.1836 8.18513 13.3582 8.18513C14.3937 8.18513 15.0316 7.5783 15.0316 6.54978H15.0322ZM18.1014 6.86412H17.4085C17.27 6.86412 17.2628 7.06083 17.2516 7.15725C17.0508 6.85384 16.7411 6.79984 16.3874 6.79984C15.4942 6.79984 14.8124 7.56738 14.8124 8.41398C14.8124 9.11016 15.2573 9.564 15.968 9.564C16.3073 9.564 16.7155 9.38915 16.934 9.13909C16.9228 9.19245 16.8973 9.30687 16.8973 9.36087C16.8973 9.44315 16.934 9.50358 17.0141 9.50358H17.6447C17.7431 9.50358 17.8271 9.40008 17.8455 9.2998L18.2176 7.00362C18.2287 6.93548 18.1736 6.86412 18.1008 6.86412H18.1014ZM19.8332 5.67489C19.8332 5.60354 19.7788 5.55018 19.7164 5.55018H19.0418C18.9873 5.55018 18.9322 5.59325 18.925 5.6466L18.3344 9.36087L18.3239 9.37887C18.3239 9.44315 18.3784 9.50358 18.4512 9.50358H19.053C19.1442 9.50358 19.2354 9.40008 19.2426 9.2998L19.8332 5.68582V5.67489ZM16.5521 7.52495C16.1072 7.52495 15.7607 7.87143 15.7607 8.31049C15.7607 8.65697 16.0159 8.84596 16.3513 8.84596C16.789 8.84596 17.1427 8.51748 17.1427 8.07842C17.1466 7.72873 16.8913 7.52495 16.5521 7.52495V7.52495Z" fill="white"/>
</svg>
