<svg width="24" height="16" viewBox="0 0 24 16" fill="none" xmlns="http://www.w3.org/2000/svg">
<path d="M0.96 0.463989C0.429912 0.463989 0 0.893781 0 1.42399V14.576C0 15.1062 0.430128 15.536 0.96 15.536H23.04C23.5701 15.536 24 15.1062 24 14.576V1.42399C24 0.893805 23.5699 0.463989 23.04 0.463989H0.96ZM14.334 4.95573C14.9181 4.95573 15.3862 5.08476 15.6847 5.20473L15.4807 6.48799L15.3457 6.41973C15.0677 6.29976 14.7105 6.18429 14.2177 6.19248C13.6279 6.19248 13.3553 6.45559 13.3553 6.70176C13.3518 6.97913 13.6739 7.16205 14.2005 7.43599C15.0697 7.85863 15.4714 8.37108 15.4658 9.04473C15.4541 10.2739 14.426 11.0682 12.8423 11.0682C12.1666 11.0608 11.5156 10.9178 11.1637 10.7525L11.3753 9.42648L11.5695 9.52099C12.0643 9.74208 12.3847 9.8315 12.9877 9.8315C13.4208 9.8315 13.8856 9.65018 13.8893 9.25325C13.8921 8.99405 13.695 8.80925 13.1085 8.51899C12.537 8.23569 11.7794 7.76114 11.7878 6.91025C11.7967 5.75918 12.8453 4.95573 14.334 4.95573V4.95573ZM2.12249 5.14399H4.55474C4.88227 5.15637 5.1467 5.26183 5.238 5.61725L5.76226 8.32325C5.76233 8.32349 5.76216 8.32447 5.76226 8.32473L5.91974 9.1355L7.39649 5.14399H8.994L6.61949 10.9865L5.02349 10.988L3.753 6.27348C4.50895 6.67397 5.15254 7.13733 5.52526 7.77499C5.42916 7.57322 5.30254 7.34546 5.14051 7.12099C4.95182 6.85958 4.54433 6.52207 4.374 6.37848C3.78048 5.87815 2.97444 5.47406 2.10374 5.26025L2.12249 5.14399V5.14399ZM9.62926 5.15073H11.1915L10.2142 10.9842H8.652L9.62926 5.15073V5.15073ZM18.453 5.15073H19.6365L20.8755 10.9842H19.455C19.455 10.9842 19.3141 10.3141 19.2683 10.1097C19.045 10.1097 17.4834 10.1075 17.3077 10.1075C17.2483 10.2654 16.9853 10.9842 16.9853 10.9842H15.378L17.6513 5.63525C17.8122 5.25513 18.0865 5.15073 18.453 5.15073V5.15073ZM18.5693 6.71973C18.4924 6.93672 18.3585 7.28712 18.3675 7.27173C18.3675 7.27173 17.8866 8.55429 17.7608 8.88725L19.0245 8.88648C18.9636 8.59723 18.672 7.21778 18.672 7.21778L18.5693 6.71978V6.71973Z" fill="white"/>
</svg>
